#N canvas 504 153 1012 636 12;
#X obj 159 167 gemhead 55;
#X obj 159 312 translateXYZ;
#X msg 70 312 draw line;
#X obj 70 273 loadbang;
#X obj 186 271 - 5.33;
#X obj 186 238 * 10.66;
#X obj 256 271 - 4;
#X obj 256 238 * 8;
#X obj 408 201 pix_data;
#X obj 434 255 trigger a a;
#X obj 578 190 spigot;
#X obj 434 344 colorDistance;
#X obj 308 63 inlet;
#X obj 393 65 inlet;
#X obj 482 66 inlet;
#X obj 602 61 inlet;
#X obj 739 66 inlet;
#X text 307 31 Clock;
#X text 392 29 Video;
#X text 485 31 X;
#X text 597 34 Y;
#X text 739 34 Store color;
#X obj 482 106 trigger f f;
#X obj 602 106 trigger f f;
#X obj 434 436 change;
#X obj 434 478 outlet;
#X obj 434 395 <= 0.4;
#X obj 159 369 square 0.65;
#X obj 574 227 outlet;
#X obj 893 270 inlet;
#X text 884 242 Flag color;
#X connect 0 0 1 0;
#X connect 1 0 27 0;
#X connect 2 0 27 0;
#X connect 3 0 2 0;
#X connect 4 0 1 1;
#X connect 5 0 4 0;
#X connect 6 0 1 2;
#X connect 7 0 6 0;
#X connect 8 1 9 0;
#X connect 9 0 11 0;
#X connect 9 1 10 0;
#X connect 10 0 28 0;
#X connect 11 0 26 0;
#X connect 12 0 8 0;
#X connect 13 0 8 1;
#X connect 14 0 22 0;
#X connect 15 0 23 0;
#X connect 16 0 10 1;
#X connect 22 0 5 0;
#X connect 22 1 8 2;
#X connect 23 0 7 0;
#X connect 23 1 8 3;
#X connect 24 0 25 0;
#X connect 26 0 24 0;
#X connect 29 0 11 1;
