#N canvas 471 5 1921 1309 12;
#X declare -lib Gem;
#X obj 58 106 gemwin;
#X msg 58 56 create;
#X msg 108 32 destroy;
#X obj 19 32 tgl 15 0 empty empty empty 17 7 0 10 -262144 -1 -1 0 1
;
#X msg 58 6 dimen 800 600;
#X obj 210 6 declare -lib Gem;
#X obj 398 80 noteHotspot;
#X obj 360 12 loadbang;
#X obj 482 12 tgl 30 0 empty empty empty 17 7 0 10 -262144 -1 -1 0
1;
#X obj 377 195 sel 1 2 3 4 5 6 7 8;
#X msg 365 284 440;
#X msg 401 285 493.88;
#X msg 465 289 554.37;
#X msg 521 292 587.33;
#X msg 580 283 659.2;
#X msg 714 285 880;
#X msg 628 285 698;
#X msg 670 287 784;
#X floatatom 531 372 5 0 0 0 - - -;
#X obj 531 395 osc~;
#X obj 540 451 *~;
#X obj 544 490 *~;
#X obj 631 474 hsl 128 15 0 1 0 0 empty empty Volume -2 -8 0 10 -204800
-1 -1 0 1;
#X obj 544 541 dac~;
#X msg 377 45 device 0;
#X connect 1 0 0 0;
#X connect 2 0 0 0;
#X connect 3 0 0 0;
#X connect 4 0 0 0;
#X connect 6 0 9 0;
#X connect 6 1 20 1;
#X connect 7 0 24 0;
#X connect 8 0 6 1;
#X connect 9 0 10 0;
#X connect 9 1 11 0;
#X connect 9 2 12 0;
#X connect 9 3 13 0;
#X connect 9 4 14 0;
#X connect 9 5 16 0;
#X connect 9 6 17 0;
#X connect 9 7 15 0;
#X connect 10 0 18 0;
#X connect 11 0 18 0;
#X connect 12 0 18 0;
#X connect 13 0 18 0;
#X connect 14 0 18 0;
#X connect 15 0 18 0;
#X connect 16 0 18 0;
#X connect 17 0 18 0;
#X connect 18 0 19 0;
#X connect 19 0 20 0;
#X connect 20 0 21 0;
#X connect 21 0 23 0;
#X connect 21 0 23 1;
#X connect 22 0 21 1;
#X connect 24 0 6 0;
