#N canvas -8 -8 1920 997 12;
#X declare -lib Gem;
#X obj 279 62 loadbang;
#X obj 386 18 gemhead 50;
#X obj 386 63 pix_video;
#X obj 386 101 pix_rgba;
#X obj 386 152 pix_flip;
#X obj 386 203 trigger a a;
#X obj 460 250 pix_separator;
#X obj 256 283 pix_separator;
#X obj 256 328 pix_texture;
#X obj 256 374 rectangle 5.33 4;
#X obj 108 177 metro 50;
#X obj 108 206 s m;
#X obj 108 140 loadbang;
#X obj 280 15 inlet;
#X obj 52 310 declare -lib Gem;
#X obj 984 76 inlet;
#X text 1027 75 Store Color;
#X obj 467 283 s x;
#X obj 271 524 hotspot;
#X obj 250 528 tgl 15 0 empty empty empty 17 7 0 10 -262144 -1 -1 1
1;
#X obj 243 475 r m;
#X obj 331 474 loadbang;
#X obj 456 523 hotspot;
#X obj 435 527 tgl 15 0 empty empty empty 17 7 0 10 -262144 -1 -1 1
1;
#X obj 428 474 r m;
#X obj 516 473 loadbang;
#X obj 613 523 hotspot;
#X obj 592 527 tgl 15 0 empty empty empty 17 7 0 10 -262144 -1 -1 1
1;
#X obj 585 474 r m;
#X obj 673 473 loadbang;
#X obj 934 518 hotspot;
#X obj 913 522 tgl 15 0 empty empty empty 17 7 0 10 -262144 -1 -1 1
1;
#X obj 906 469 r m;
#X obj 994 468 loadbang;
#X obj 1103 515 hotspot;
#X obj 1082 519 tgl 15 0 empty empty empty 17 7 0 10 -262144 -1 -1
1 1;
#X obj 1075 466 r m;
#X obj 1163 465 loadbang;
#X obj 783 521 hotspot;
#X obj 762 525 tgl 15 0 empty empty empty 17 7 0 10 -262144 -1 -1 1
1;
#X obj 755 472 r m;
#X obj 843 471 loadbang;
#X obj 270 453 r x;
#X obj 448 442 r x;
#X obj 608 435 r x;
#X obj 790 438 r x;
#X obj 962 438 r x;
#X obj 1103 442 r x;
#X text 153 488 top row;
#X msg 279 100 none;
#X obj 1259 514 hotspot;
#X obj 1238 518 tgl 15 0 empty empty empty 17 7 0 10 -262144 -1 -1
1 1;
#X obj 1231 465 r m;
#X obj 1319 464 loadbang;
#X obj 1287 434 r x;
#X obj 1419 513 hotspot;
#X obj 1398 517 tgl 15 0 empty empty empty 17 7 0 10 -262144 -1 -1
1 1;
#X obj 1391 464 r m;
#X obj 1479 463 loadbang;
#X obj 1447 433 r x;
#X msg 288 475 0.06;
#X msg 473 471 0.185;
#X msg 630 474 0.31;
#X msg 804 465 0.435;
#X msg 951 469 0.56;
#X msg 1120 466 0.685;
#X msg 1276 465 0.81;
#X msg 1436 464 0.935;
#X msg 323 499 0.905;
#X msg 507 494 0.905;
#X msg 662 498 0.905;
#X msg 832 492 0.905;
#X msg 983 489 0.905;
#X msg 1152 488 0.905;
#X msg 1308 485 0.905;
#X msg 1468 484 0.905;
#X obj 271 736 hotspot;
#X obj 250 740 tgl 15 0 empty empty empty 17 7 0 10 -262144 -1 -1 1
1;
#X obj 243 687 r m;
#X obj 331 686 loadbang;
#X obj 456 735 hotspot;
#X obj 435 739 tgl 15 0 empty empty empty 17 7 0 10 -262144 -1 -1 1
1;
#X obj 428 686 r m;
#X obj 516 685 loadbang;
#X obj 613 735 hotspot;
#X obj 592 739 tgl 15 0 empty empty empty 17 7 0 10 -262144 -1 -1 1
1;
#X obj 585 686 r m;
#X obj 673 685 loadbang;
#X obj 934 730 hotspot;
#X obj 913 734 tgl 15 0 empty empty empty 17 7 0 10 -262144 -1 -1 1
1;
#X obj 906 681 r m;
#X obj 994 680 loadbang;
#X obj 1103 727 hotspot;
#X obj 1082 731 tgl 15 0 empty empty empty 17 7 0 10 -262144 -1 -1
1 1;
#X obj 1075 678 r m;
#X obj 1163 677 loadbang;
#X obj 783 733 hotspot;
#X obj 762 737 tgl 15 0 empty empty empty 17 7 0 10 -262144 -1 -1 1
1;
#X obj 755 684 r m;
#X obj 843 683 loadbang;
#X obj 270 665 r x;
#X obj 448 654 r x;
#X obj 608 647 r x;
#X obj 790 650 r x;
#X obj 962 650 r x;
#X obj 1103 654 r x;
#X obj 1259 726 hotspot;
#X obj 1238 730 tgl 15 0 empty empty empty 17 7 0 10 -262144 -1 -1
1 1;
#X obj 1231 677 r m;
#X obj 1319 676 loadbang;
#X obj 1287 646 r x;
#X obj 1419 725 hotspot;
#X obj 1398 729 tgl 15 0 empty empty empty 17 7 0 10 -262144 -1 -1
1 1;
#X obj 1391 676 r m;
#X obj 1479 675 loadbang;
#X obj 1447 645 r x;
#X msg 288 687 0.06;
#X msg 473 683 0.185;
#X msg 630 686 0.31;
#X msg 804 677 0.435;
#X msg 951 681 0.56;
#X msg 1120 678 0.685;
#X msg 1276 677 0.81;
#X msg 1436 676 0.935;
#X text 153 700 2nd row;
#X obj 274 941 hotspot;
#X obj 253 945 tgl 15 0 empty empty empty 17 7 0 10 -262144 -1 -1 1
1;
#X obj 246 892 r m;
#X obj 334 891 loadbang;
#X obj 459 940 hotspot;
#X obj 438 944 tgl 15 0 empty empty empty 17 7 0 10 -262144 -1 -1 1
1;
#X obj 431 891 r m;
#X obj 519 890 loadbang;
#X obj 616 940 hotspot;
#X obj 595 944 tgl 15 0 empty empty empty 17 7 0 10 -262144 -1 -1 1
1;
#X obj 588 891 r m;
#X obj 676 890 loadbang;
#X obj 937 935 hotspot;
#X obj 916 939 tgl 15 0 empty empty empty 17 7 0 10 -262144 -1 -1 1
1;
#X obj 909 886 r m;
#X obj 997 885 loadbang;
#X obj 1106 932 hotspot;
#X obj 1085 936 tgl 15 0 empty empty empty 17 7 0 10 -262144 -1 -1
1 1;
#X obj 1078 883 r m;
#X obj 1166 882 loadbang;
#X obj 786 938 hotspot;
#X obj 765 942 tgl 15 0 empty empty empty 17 7 0 10 -262144 -1 -1 1
1;
#X obj 758 889 r m;
#X obj 846 888 loadbang;
#X obj 273 870 r x;
#X obj 451 859 r x;
#X obj 611 852 r x;
#X obj 793 855 r x;
#X obj 965 855 r x;
#X obj 1106 859 r x;
#X obj 1262 931 hotspot;
#X obj 1243 935 tgl 15 0 empty empty empty 17 7 0 10 -262144 -1 -1
1 1;
#X obj 1234 882 r m;
#X obj 1322 881 loadbang;
#X obj 1290 851 r x;
#X obj 1422 930 hotspot;
#X obj 1401 934 tgl 15 0 empty empty empty 17 7 0 10 -262144 -1 -1
1 1;
#X obj 1394 881 r m;
#X obj 1482 880 loadbang;
#X obj 1450 850 r x;
#X msg 291 892 0.06;
#X msg 476 888 0.185;
#X msg 633 891 0.31;
#X msg 807 882 0.435;
#X msg 954 886 0.56;
#X msg 1123 883 0.685;
#X msg 1279 882 0.81;
#X msg 1439 881 0.935;
#X obj 266 1149 hotspot;
#X obj 245 1153 tgl 15 0 empty empty empty 17 7 0 10 -262144 -1 -1
1 1;
#X obj 238 1100 r m;
#X obj 326 1099 loadbang;
#X obj 451 1148 hotspot;
#X obj 430 1152 tgl 15 0 empty empty empty 17 7 0 10 -262144 -1 -1
1 1;
#X obj 423 1099 r m;
#X obj 511 1098 loadbang;
#X obj 608 1148 hotspot;
#X obj 587 1152 tgl 15 0 empty empty empty 17 7 0 10 -262144 -1 -1
1 1;
#X obj 580 1099 r m;
#X obj 668 1098 loadbang;
#X obj 929 1143 hotspot;
#X obj 908 1147 tgl 15 0 empty empty empty 17 7 0 10 -262144 -1 -1
1 1;
#X obj 901 1094 r m;
#X obj 989 1093 loadbang;
#X obj 1098 1140 hotspot;
#X obj 1077 1144 tgl 15 0 empty empty empty 17 7 0 10 -262144 -1 -1
1 1;
#X obj 1070 1091 r m;
#X obj 1158 1090 loadbang;
#X obj 778 1146 hotspot;
#X obj 757 1150 tgl 15 0 empty empty empty 17 7 0 10 -262144 -1 -1
1 1;
#X obj 750 1097 r m;
#X obj 838 1096 loadbang;
#X obj 265 1078 r x;
#X obj 443 1067 r x;
#X obj 603 1060 r x;
#X obj 785 1063 r x;
#X obj 957 1063 r x;
#X obj 1098 1067 r x;
#X obj 1254 1139 hotspot;
#X obj 1233 1143 tgl 15 0 empty empty empty 17 7 0 10 -262144 -1 -1
1 1;
#X obj 1226 1090 r m;
#X obj 1314 1089 loadbang;
#X obj 1282 1059 r x;
#X obj 1414 1138 hotspot;
#X obj 1393 1142 tgl 15 0 empty empty empty 17 7 0 10 -262144 -1 -1
1 1;
#X obj 1386 1089 r m;
#X obj 1474 1088 loadbang;
#X obj 1442 1058 r x;
#X msg 283 1100 0.06;
#X msg 468 1096 0.185;
#X msg 625 1099 0.31;
#X msg 799 1090 0.435;
#X msg 946 1094 0.56;
#X msg 1115 1091 0.685;
#X msg 1271 1090 0.81;
#X msg 1431 1089 0.935;
#X msg 323 711 0.74;
#X msg 507 706 0.74;
#X msg 662 710 0.74;
#X msg 832 704 0.74;
#X msg 983 701 0.74;
#X msg 1152 700 0.74;
#X msg 1308 697 0.74;
#X msg 1468 696 0.74;
#X msg 330 916 0.575;
#X msg 510 911 0.575;
#X msg 665 915 0.575;
#X msg 838 909 0.575;
#X msg 986 906 0.575;
#X msg 1155 905 0.575;
#X msg 1311 902 0.575;
#X msg 1471 901 0.575;
#X text 156 908 3rd row;
#X text 148 1113 4th row;
#X msg 318 1124 0.41;
#X msg 502 1119 0.41;
#X msg 657 1123 0.41;
#X msg 827 1117 0.41;
#X msg 978 1114 0.41;
#X msg 1147 1113 0.41;
#X msg 1303 1110 0.41;
#X msg 1463 1109 0.41;
#X obj 287 1334 hotspot;
#X obj 266 1338 tgl 15 0 empty empty empty 17 7 0 10 -262144 -1 -1
1 1;
#X obj 259 1285 r m;
#X obj 347 1284 loadbang;
#X obj 472 1333 hotspot;
#X obj 451 1337 tgl 15 0 empty empty empty 17 7 0 10 -262144 -1 -1
1 1;
#X obj 444 1284 r m;
#X obj 532 1283 loadbang;
#X obj 629 1333 hotspot;
#X obj 608 1337 tgl 15 0 empty empty empty 17 7 0 10 -262144 -1 -1
1 1;
#X obj 601 1284 r m;
#X obj 689 1283 loadbang;
#X obj 950 1328 hotspot;
#X obj 929 1332 tgl 15 0 empty empty empty 17 7 0 10 -262144 -1 -1
1 1;
#X obj 922 1279 r m;
#X obj 1010 1278 loadbang;
#X obj 1119 1325 hotspot;
#X obj 1098 1329 tgl 15 0 empty empty empty 17 7 0 10 -262144 -1 -1
1 1;
#X obj 1091 1276 r m;
#X obj 1179 1275 loadbang;
#X obj 799 1331 hotspot;
#X obj 778 1335 tgl 15 0 empty empty empty 17 7 0 10 -262144 -1 -1
1 1;
#X obj 771 1282 r m;
#X obj 859 1281 loadbang;
#X obj 286 1263 r x;
#X obj 464 1252 r x;
#X obj 624 1245 r x;
#X obj 806 1248 r x;
#X obj 978 1248 r x;
#X obj 1119 1252 r x;
#X obj 1275 1324 hotspot;
#X obj 1254 1328 tgl 15 0 empty empty empty 17 7 0 10 -262144 -1 -1
1 1;
#X obj 1247 1275 r m;
#X obj 1335 1274 loadbang;
#X obj 1303 1244 r x;
#X obj 1435 1323 hotspot;
#X obj 1414 1327 tgl 15 0 empty empty empty 17 7 0 10 -262144 -1 -1
1 1;
#X obj 1407 1274 r m;
#X obj 1495 1273 loadbang;
#X obj 1463 1243 r x;
#X msg 304 1285 0.06;
#X msg 489 1281 0.185;
#X msg 646 1284 0.31;
#X msg 820 1275 0.435;
#X msg 967 1279 0.56;
#X msg 1136 1276 0.685;
#X msg 1292 1275 0.81;
#X msg 1452 1274 0.935;
#X msg 339 1309 0.245;
#X msg 523 1304 0.245;
#X msg 678 1308 0.245;
#X msg 848 1302 0.245;
#X msg 999 1299 0.245;
#X msg 1168 1298 0.245;
#X msg 1324 1295 0.245;
#X msg 1484 1294 0.245;
#X text 169 1298 5th row;
#X obj 235 1594 hotspot;
#X obj 214 1598 tgl 15 0 empty empty empty 17 7 0 10 -262144 -1 -1
1 1;
#X obj 207 1545 r m;
#X obj 295 1544 loadbang;
#X obj 420 1593 hotspot;
#X obj 399 1597 tgl 15 0 empty empty empty 17 7 0 10 -262144 -1 -1
1 1;
#X obj 392 1544 r m;
#X obj 480 1543 loadbang;
#X obj 577 1593 hotspot;
#X obj 556 1597 tgl 15 0 empty empty empty 17 7 0 10 -262144 -1 -1
1 1;
#X obj 549 1544 r m;
#X obj 637 1543 loadbang;
#X obj 898 1588 hotspot;
#X obj 877 1592 tgl 15 0 empty empty empty 17 7 0 10 -262144 -1 -1
1 1;
#X obj 870 1539 r m;
#X obj 958 1538 loadbang;
#X obj 1067 1585 hotspot;
#X obj 1046 1589 tgl 15 0 empty empty empty 17 7 0 10 -262144 -1 -1
1 1;
#X obj 1039 1536 r m;
#X obj 1127 1535 loadbang;
#X obj 747 1591 hotspot;
#X obj 726 1595 tgl 15 0 empty empty empty 17 7 0 10 -262144 -1 -1
1 1;
#X obj 719 1542 r m;
#X obj 807 1541 loadbang;
#X obj 234 1523 r x;
#X obj 412 1512 r x;
#X obj 572 1505 r x;
#X obj 754 1508 r x;
#X obj 926 1508 r x;
#X obj 1067 1512 r x;
#X obj 1223 1584 hotspot;
#X obj 1202 1588 tgl 15 0 empty empty empty 17 7 0 10 -262144 -1 -1
1 1;
#X obj 1195 1535 r m;
#X obj 1283 1534 loadbang;
#X obj 1251 1504 r x;
#X obj 1383 1583 hotspot;
#X obj 1362 1587 tgl 15 0 empty empty empty 17 7 0 10 -262144 -1 -1
1 1;
#X obj 1355 1534 r m;
#X obj 1443 1533 loadbang;
#X obj 1411 1503 r x;
#X msg 252 1545 0.06;
#X msg 437 1541 0.185;
#X msg 594 1544 0.31;
#X msg 768 1535 0.435;
#X msg 915 1539 0.56;
#X msg 1084 1536 0.685;
#X msg 1240 1535 0.81;
#X msg 1400 1534 0.935;
#X text 117 1558 Bottom row;
#X msg 287 1569 0.08;
#X msg 471 1564 0.08;
#X msg 626 1568 0.08;
#X msg 796 1562 0.08;
#X msg 947 1559 0.08;
#X msg 1116 1558 0.08;
#X msg 1272 1555 0.08;
#X msg 1432 1554 0.08;
#X obj 898 232 hotspot;
#X obj 877 236 tgl 15 0 empty empty empty 17 7 0 10 -262144 -1 -1 1
1;
#X obj 870 183 r m;
#X obj 958 182 loadbang;
#X obj 926 152 r x;
#X text 678 196 main (capture) hotspot;
#X msg 915 183 0.5;
#X msg 947 203 0.5;
#X msg 245 579 1;
#X msg 300 579 1;
#X obj 221 615 s note;
#X obj 301 612 s volume;
#X msg 485 569 1;
#X obj 406 605 s note;
#X obj 486 602 s volume;
#X msg 652 565 1;
#X obj 573 601 s note;
#X obj 653 598 s volume;
#X msg 814 564 1;
#X obj 735 600 s note;
#X obj 815 597 s volume;
#X msg 986 565 1;
#X obj 907 601 s note;
#X obj 987 598 s volume;
#X msg 1149 564 1;
#X obj 1070 600 s note;
#X obj 1150 597 s volume;
#X msg 1307 564 1;
#X obj 1228 600 s note;
#X obj 1308 597 s volume;
#X msg 1472 561 1;
#X obj 1393 597 s note;
#X obj 1473 594 s volume;
#X msg 430 569 2;
#X msg 597 565 3;
#X msg 759 564 4;
#X msg 931 565 5;
#X msg 1094 564 6;
#X msg 1252 564 7;
#X msg 1417 561 8;
#X msg 245 788 1;
#X obj 221 824 s note;
#X obj 301 821 s volume;
#X obj 406 814 s note;
#X obj 486 811 s volume;
#X obj 573 810 s note;
#X obj 653 807 s volume;
#X obj 735 809 s note;
#X obj 815 806 s volume;
#X obj 907 810 s note;
#X obj 987 807 s volume;
#X obj 1070 809 s note;
#X obj 1150 806 s volume;
#X obj 1228 809 s note;
#X obj 1308 806 s volume;
#X obj 1393 806 s note;
#X obj 1473 803 s volume;
#X msg 430 778 2;
#X msg 597 774 3;
#X msg 759 773 4;
#X msg 931 774 5;
#X msg 1094 773 6;
#X msg 1252 773 7;
#X msg 1417 770 8;
#X msg 300 788 0.8;
#X msg 485 778 0.8;
#X msg 652 774 0.8;
#X msg 814 773 0.8;
#X msg 986 774 0.8;
#X msg 1149 773 0.8;
#X msg 1307 773 0.8;
#X msg 1472 770 0.8;
#X msg 247 997 1;
#X obj 223 1033 s note;
#X obj 303 1030 s volume;
#X obj 408 1023 s note;
#X obj 488 1020 s volume;
#X obj 575 1019 s note;
#X obj 655 1016 s volume;
#X obj 737 1018 s note;
#X obj 817 1015 s volume;
#X obj 909 1019 s note;
#X obj 989 1016 s volume;
#X obj 1072 1018 s note;
#X obj 1152 1015 s volume;
#X obj 1230 1018 s note;
#X obj 1310 1015 s volume;
#X obj 1395 1015 s note;
#X obj 1475 1012 s volume;
#X msg 432 987 2;
#X msg 599 983 3;
#X msg 761 982 4;
#X msg 933 983 5;
#X msg 1096 982 6;
#X msg 1254 982 7;
#X msg 1419 979 8;
#X msg 302 997 0.6;
#X msg 487 987 0.6;
#X msg 654 983 0.6;
#X msg 816 982 0.6;
#X msg 988 983 0.6;
#X msg 1151 982 0.6;
#X msg 1309 982 0.6;
#X msg 1468 983 0.6;
#X msg 240 1189 1;
#X obj 216 1225 s note;
#X obj 296 1222 s volume;
#X obj 401 1215 s note;
#X obj 481 1212 s volume;
#X obj 568 1211 s note;
#X obj 648 1208 s volume;
#X obj 730 1210 s note;
#X obj 810 1207 s volume;
#X obj 902 1211 s note;
#X obj 982 1208 s volume;
#X obj 1065 1210 s note;
#X obj 1145 1207 s volume;
#X obj 1223 1210 s note;
#X obj 1303 1207 s volume;
#X obj 1388 1207 s note;
#X obj 1468 1204 s volume;
#X msg 425 1179 2;
#X msg 592 1175 3;
#X msg 754 1174 4;
#X msg 926 1175 5;
#X msg 1089 1174 6;
#X msg 1247 1174 7;
#X msg 1412 1171 8;
#X msg 295 1189 0.4;
#X msg 480 1179 0.4;
#X msg 647 1175 0.4;
#X msg 809 1174 0.4;
#X msg 981 1175 0.4;
#X msg 1144 1174 0.4;
#X msg 1302 1174 0.4;
#X msg 1461 1175 0.4;
#X msg 238 1381 1;
#X obj 214 1417 s note;
#X obj 294 1414 s volume;
#X obj 399 1407 s note;
#X obj 479 1404 s volume;
#X obj 566 1403 s note;
#X obj 646 1400 s volume;
#X obj 728 1402 s note;
#X obj 808 1399 s volume;
#X obj 900 1403 s note;
#X obj 980 1400 s volume;
#X obj 1063 1402 s note;
#X obj 1143 1399 s volume;
#X obj 1221 1402 s note;
#X obj 1301 1399 s volume;
#X obj 1386 1399 s note;
#X obj 1466 1396 s volume;
#X msg 423 1371 2;
#X msg 590 1367 3;
#X msg 752 1366 4;
#X msg 924 1367 5;
#X msg 1087 1366 6;
#X msg 1245 1366 7;
#X msg 1410 1363 8;
#X msg 293 1381 0.2;
#X msg 478 1371 0.2;
#X msg 645 1367 0.2;
#X msg 807 1366 0.2;
#X msg 979 1367 0.2;
#X msg 1142 1366 0.2;
#X msg 1300 1366 0.2;
#X msg 1459 1367 0.2;
#X msg 224 1640 1;
#X obj 200 1676 s note;
#X obj 280 1673 s volume;
#X obj 385 1666 s note;
#X obj 465 1663 s volume;
#X obj 552 1662 s note;
#X obj 632 1659 s volume;
#X obj 714 1661 s note;
#X obj 794 1658 s volume;
#X obj 886 1662 s note;
#X obj 966 1659 s volume;
#X obj 1049 1661 s note;
#X obj 1129 1658 s volume;
#X obj 1207 1661 s note;
#X obj 1287 1658 s volume;
#X obj 1372 1658 s note;
#X obj 1452 1655 s volume;
#X msg 409 1630 2;
#X msg 576 1626 3;
#X msg 738 1625 4;
#X msg 910 1626 5;
#X msg 1073 1625 6;
#X msg 1231 1625 7;
#X msg 1396 1622 8;
#X obj 1159 253 r note;
#X obj 1233 253 r volume;
#X floatatom 1159 291 5 0 0 0 - - -;
#X floatatom 1236 295 5 0 0 0 - - -;
#X obj 1152 341 outlet;
#X obj 1246 344 outlet;
#X msg 279 1640 0.1;
#X msg 464 1630 0.1;
#X msg 631 1626 0.1;
#X msg 793 1625 0.1;
#X msg 968 1623 0.1;
#X msg 1128 1625 0.1;
#X msg 1286 1625 0.1;
#X msg 1445 1626 0.1;
#X obj 925 290 unpack f f f;
#X floatatom 911 321 5 0 0 0 - - -;
#X floatatom 955 321 5 0 0 0 - - -;
#X floatatom 999 319 5 0 0 0 - - -;
#X obj 839 313 s flag;
#X obj 352 434 r flag;
#X obj 528 436 r flag;
#X obj 694 434 r flag;
#X obj 860 437 r flag;
#X obj 1017 442 r flag;
#X obj 1164 435 r flag;
#X obj 1338 435 r flag;
#X obj 1493 433 r flag;
#X obj 322 654 r flag;
#X obj 522 654 r flag;
#X obj 672 643 r flag;
#X obj 842 641 r flag;
#X obj 1005 644 r flag;
#X obj 1139 645 r flag;
#X obj 1327 641 r flag;
#X obj 1484 645 r flag;
#X obj 326 853 r flag;
#X obj 497 850 r flag;
#X obj 667 849 r flag;
#X obj 838 850 r flag;
#X obj 1013 850 r flag;
#X obj 1162 851 r flag;
#X obj 1321 853 r flag;
#X obj 1486 850 r flag;
#X obj 314 1064 r flag;
#X obj 496 1063 r flag;
#X obj 667 1058 r flag;
#X obj 825 1059 r flag;
#X obj 997 1061 r flag;
#X obj 1142 1061 r flag;
#X obj 1312 1058 r flag;
#X obj 1477 1055 r flag;
#X obj 331 1250 r flag;
#X obj 498 1247 r flag;
#X obj 656 1248 r flag;
#X obj 843 1241 r flag;
#X obj 1009 1250 r flag;
#X obj 1152 1249 r flag;
#X obj 1502 1238 r flag;
#X obj 1337 1244 r flag;
#X obj 284 1514 r flag;
#X obj 472 1503 r flag;
#X obj 635 1503 r flag;
#X obj 811 1498 r flag;
#X obj 976 1499 r flag;
#X obj 1108 1507 r flag;
#X obj 1288 1497 r flag;
#X obj 1448 1495 r flag;
#X connect 0 0 49 0;
#X connect 1 0 2 0;
#X connect 2 0 3 0;
#X connect 3 0 4 0;
#X connect 4 0 5 0;
#X connect 5 0 7 0;
#X connect 5 1 6 0;
#X connect 6 0 17 0;
#X connect 7 0 8 0;
#X connect 8 0 9 0;
#X connect 10 0 11 0;
#X connect 12 0 10 0;
#X connect 13 0 2 0;
#X connect 15 0 361 4;
#X connect 18 0 19 0;
#X connect 19 0 369 0;
#X connect 19 0 370 0;
#X connect 20 0 18 0;
#X connect 21 0 68 0;
#X connect 21 0 60 0;
#X connect 22 0 23 0;
#X connect 23 0 394 0;
#X connect 23 0 373 0;
#X connect 24 0 22 0;
#X connect 25 0 69 0;
#X connect 25 0 61 0;
#X connect 26 0 27 0;
#X connect 27 0 395 0;
#X connect 27 0 376 0;
#X connect 28 0 26 0;
#X connect 29 0 70 0;
#X connect 29 0 62 0;
#X connect 30 0 31 0;
#X connect 31 0 397 0;
#X connect 31 0 382 0;
#X connect 32 0 30 0;
#X connect 33 0 64 0;
#X connect 33 0 72 0;
#X connect 34 0 35 0;
#X connect 35 0 398 0;
#X connect 35 0 385 0;
#X connect 36 0 34 0;
#X connect 37 0 65 0;
#X connect 37 0 73 0;
#X connect 38 0 39 0;
#X connect 39 0 396 0;
#X connect 39 0 379 0;
#X connect 40 0 38 0;
#X connect 41 0 63 0;
#X connect 41 0 71 0;
#X connect 42 0 18 1;
#X connect 43 0 22 1;
#X connect 44 0 26 1;
#X connect 45 0 38 1;
#X connect 46 0 30 1;
#X connect 47 0 34 1;
#X connect 49 0 4 0;
#X connect 50 0 51 0;
#X connect 51 0 399 0;
#X connect 51 0 388 0;
#X connect 52 0 50 0;
#X connect 53 0 66 0;
#X connect 53 0 74 0;
#X connect 54 0 50 1;
#X connect 55 0 56 0;
#X connect 56 0 400 0;
#X connect 56 0 391 0;
#X connect 57 0 55 0;
#X connect 58 0 67 0;
#X connect 58 0 75 0;
#X connect 59 0 55 1;
#X connect 60 0 18 2;
#X connect 61 0 22 2;
#X connect 62 0 26 2;
#X connect 63 0 38 2;
#X connect 64 0 30 2;
#X connect 65 0 34 2;
#X connect 66 0 50 2;
#X connect 67 0 55 2;
#X connect 68 0 18 3;
#X connect 69 0 22 3;
#X connect 70 0 26 3;
#X connect 71 0 38 3;
#X connect 72 0 30 3;
#X connect 73 0 34 3;
#X connect 74 0 50 3;
#X connect 75 0 55 3;
#X connect 76 0 77 0;
#X connect 77 0 401 0;
#X connect 77 0 425 0;
#X connect 78 0 76 0;
#X connect 79 0 221 0;
#X connect 79 0 116 0;
#X connect 80 0 81 0;
#X connect 81 0 418 0;
#X connect 81 0 426 0;
#X connect 82 0 80 0;
#X connect 83 0 222 0;
#X connect 83 0 117 0;
#X connect 84 0 85 0;
#X connect 85 0 419 0;
#X connect 85 0 427 0;
#X connect 86 0 84 0;
#X connect 87 0 223 0;
#X connect 87 0 118 0;
#X connect 88 0 89 0;
#X connect 89 0 421 0;
#X connect 89 0 429 0;
#X connect 90 0 88 0;
#X connect 91 0 120 0;
#X connect 91 0 225 0;
#X connect 92 0 93 0;
#X connect 93 0 422 0;
#X connect 93 0 430 0;
#X connect 94 0 92 0;
#X connect 95 0 121 0;
#X connect 95 0 226 0;
#X connect 96 0 97 0;
#X connect 97 0 420 0;
#X connect 97 0 428 0;
#X connect 98 0 96 0;
#X connect 99 0 119 0;
#X connect 99 0 224 0;
#X connect 100 0 76 1;
#X connect 101 0 80 1;
#X connect 102 0 84 1;
#X connect 103 0 96 1;
#X connect 104 0 88 1;
#X connect 105 0 92 1;
#X connect 106 0 107 0;
#X connect 107 0 423 0;
#X connect 107 0 431 0;
#X connect 108 0 106 0;
#X connect 109 0 122 0;
#X connect 109 0 227 0;
#X connect 110 0 106 1;
#X connect 111 0 112 0;
#X connect 112 0 424 0;
#X connect 112 0 432 0;
#X connect 113 0 111 0;
#X connect 114 0 123 0;
#X connect 114 0 228 0;
#X connect 115 0 111 1;
#X connect 116 0 76 2;
#X connect 117 0 80 2;
#X connect 118 0 84 2;
#X connect 119 0 96 2;
#X connect 120 0 88 2;
#X connect 121 0 92 2;
#X connect 122 0 106 2;
#X connect 123 0 111 2;
#X connect 125 0 126 0;
#X connect 126 0 433 0;
#X connect 126 0 457 0;
#X connect 127 0 125 0;
#X connect 128 0 229 0;
#X connect 128 0 165 0;
#X connect 129 0 130 0;
#X connect 130 0 450 0;
#X connect 130 0 458 0;
#X connect 131 0 129 0;
#X connect 132 0 230 0;
#X connect 132 0 166 0;
#X connect 133 0 134 0;
#X connect 134 0 451 0;
#X connect 134 0 459 0;
#X connect 135 0 133 0;
#X connect 136 0 231 0;
#X connect 136 0 167 0;
#X connect 137 0 138 0;
#X connect 138 0 453 0;
#X connect 138 0 461 0;
#X connect 139 0 137 0;
#X connect 140 0 169 0;
#X connect 140 0 233 0;
#X connect 141 0 142 0;
#X connect 142 0 454 0;
#X connect 142 0 462 0;
#X connect 143 0 141 0;
#X connect 144 0 170 0;
#X connect 144 0 234 0;
#X connect 145 0 146 0;
#X connect 146 0 452 0;
#X connect 146 0 460 0;
#X connect 147 0 145 0;
#X connect 148 0 168 0;
#X connect 148 0 232 0;
#X connect 149 0 125 1;
#X connect 150 0 129 1;
#X connect 151 0 133 1;
#X connect 152 0 145 1;
#X connect 153 0 137 1;
#X connect 154 0 141 1;
#X connect 155 0 156 0;
#X connect 156 0 455 0;
#X connect 156 0 463 0;
#X connect 157 0 155 0;
#X connect 158 0 171 0;
#X connect 158 0 235 0;
#X connect 159 0 155 1;
#X connect 160 0 161 0;
#X connect 161 0 456 0;
#X connect 161 0 464 0;
#X connect 162 0 160 0;
#X connect 163 0 172 0;
#X connect 163 0 236 0;
#X connect 164 0 160 1;
#X connect 165 0 125 2;
#X connect 166 0 129 2;
#X connect 167 0 133 2;
#X connect 168 0 145 2;
#X connect 169 0 137 2;
#X connect 170 0 141 2;
#X connect 171 0 155 2;
#X connect 172 0 160 2;
#X connect 173 0 174 0;
#X connect 174 0 465 0;
#X connect 174 0 489 0;
#X connect 175 0 173 0;
#X connect 176 0 239 0;
#X connect 176 0 213 0;
#X connect 177 0 178 0;
#X connect 178 0 482 0;
#X connect 178 0 490 0;
#X connect 179 0 177 0;
#X connect 180 0 240 0;
#X connect 180 0 214 0;
#X connect 181 0 182 0;
#X connect 182 0 483 0;
#X connect 182 0 491 0;
#X connect 183 0 181 0;
#X connect 184 0 241 0;
#X connect 184 0 215 0;
#X connect 185 0 186 0;
#X connect 186 0 485 0;
#X connect 186 0 493 0;
#X connect 187 0 185 0;
#X connect 188 0 217 0;
#X connect 188 0 243 0;
#X connect 189 0 190 0;
#X connect 190 0 486 0;
#X connect 190 0 494 0;
#X connect 191 0 189 0;
#X connect 192 0 218 0;
#X connect 192 0 244 0;
#X connect 193 0 194 0;
#X connect 194 0 484 0;
#X connect 194 0 492 0;
#X connect 195 0 193 0;
#X connect 196 0 216 0;
#X connect 196 0 242 0;
#X connect 197 0 173 1;
#X connect 198 0 177 1;
#X connect 199 0 181 1;
#X connect 200 0 193 1;
#X connect 201 0 185 1;
#X connect 202 0 189 1;
#X connect 203 0 204 0;
#X connect 204 0 487 0;
#X connect 204 0 495 0;
#X connect 205 0 203 0;
#X connect 206 0 219 0;
#X connect 206 0 245 0;
#X connect 207 0 203 1;
#X connect 208 0 209 0;
#X connect 209 0 488 0;
#X connect 209 0 496 0;
#X connect 210 0 208 0;
#X connect 211 0 220 0;
#X connect 211 0 246 0;
#X connect 212 0 208 1;
#X connect 213 0 173 2;
#X connect 214 0 177 2;
#X connect 215 0 181 2;
#X connect 216 0 193 2;
#X connect 217 0 185 2;
#X connect 218 0 189 2;
#X connect 219 0 203 2;
#X connect 220 0 208 2;
#X connect 221 0 76 3;
#X connect 222 0 80 3;
#X connect 223 0 84 3;
#X connect 224 0 96 3;
#X connect 225 0 88 3;
#X connect 226 0 92 3;
#X connect 227 0 106 3;
#X connect 228 0 111 3;
#X connect 229 0 125 3;
#X connect 230 0 129 3;
#X connect 231 0 133 3;
#X connect 232 0 145 3;
#X connect 233 0 137 3;
#X connect 234 0 141 3;
#X connect 235 0 155 3;
#X connect 236 0 160 3;
#X connect 239 0 173 3;
#X connect 240 0 177 3;
#X connect 241 0 181 3;
#X connect 242 0 193 3;
#X connect 243 0 185 3;
#X connect 244 0 189 3;
#X connect 245 0 203 3;
#X connect 246 0 208 3;
#X connect 247 0 248 0;
#X connect 248 0 497 0;
#X connect 248 0 521 0;
#X connect 249 0 247 0;
#X connect 250 0 295 0;
#X connect 250 0 287 0;
#X connect 251 0 252 0;
#X connect 252 0 514 0;
#X connect 252 0 522 0;
#X connect 253 0 251 0;
#X connect 254 0 296 0;
#X connect 254 0 288 0;
#X connect 255 0 256 0;
#X connect 256 0 515 0;
#X connect 256 0 523 0;
#X connect 257 0 255 0;
#X connect 258 0 297 0;
#X connect 258 0 289 0;
#X connect 259 0 260 0;
#X connect 260 0 517 0;
#X connect 260 0 525 0;
#X connect 261 0 259 0;
#X connect 262 0 291 0;
#X connect 262 0 299 0;
#X connect 263 0 264 0;
#X connect 264 0 518 0;
#X connect 264 0 526 0;
#X connect 265 0 263 0;
#X connect 266 0 292 0;
#X connect 266 0 300 0;
#X connect 267 0 268 0;
#X connect 268 0 516 0;
#X connect 268 0 524 0;
#X connect 269 0 267 0;
#X connect 270 0 290 0;
#X connect 270 0 298 0;
#X connect 271 0 247 1;
#X connect 272 0 251 1;
#X connect 273 0 255 1;
#X connect 274 0 267 1;
#X connect 275 0 259 1;
#X connect 276 0 263 1;
#X connect 277 0 278 0;
#X connect 278 0 519 0;
#X connect 278 0 527 0;
#X connect 279 0 277 0;
#X connect 280 0 293 0;
#X connect 280 0 301 0;
#X connect 281 0 277 1;
#X connect 282 0 283 0;
#X connect 283 0 520 0;
#X connect 283 0 528 0;
#X connect 284 0 282 0;
#X connect 285 0 294 0;
#X connect 285 0 302 0;
#X connect 286 0 282 1;
#X connect 287 0 247 2;
#X connect 288 0 251 2;
#X connect 289 0 255 2;
#X connect 290 0 267 2;
#X connect 291 0 259 2;
#X connect 292 0 263 2;
#X connect 293 0 277 2;
#X connect 294 0 282 2;
#X connect 295 0 247 3;
#X connect 296 0 251 3;
#X connect 297 0 255 3;
#X connect 298 0 267 3;
#X connect 299 0 259 3;
#X connect 300 0 263 3;
#X connect 301 0 277 3;
#X connect 302 0 282 3;
#X connect 304 0 305 0;
#X connect 305 0 529 0;
#X connect 305 0 559 0;
#X connect 306 0 304 0;
#X connect 307 0 353 0;
#X connect 307 0 344 0;
#X connect 308 0 309 0;
#X connect 309 0 546 0;
#X connect 309 0 560 0;
#X connect 310 0 308 0;
#X connect 311 0 354 0;
#X connect 311 0 345 0;
#X connect 312 0 313 0;
#X connect 313 0 547 0;
#X connect 313 0 561 0;
#X connect 314 0 312 0;
#X connect 315 0 355 0;
#X connect 315 0 346 0;
#X connect 316 0 317 0;
#X connect 317 0 549 0;
#X connect 317 0 563 0;
#X connect 318 0 316 0;
#X connect 319 0 348 0;
#X connect 319 0 357 0;
#X connect 320 0 321 0;
#X connect 321 0 550 0;
#X connect 321 0 564 0;
#X connect 322 0 320 0;
#X connect 323 0 349 0;
#X connect 323 0 358 0;
#X connect 324 0 325 0;
#X connect 325 0 548 0;
#X connect 325 0 562 0;
#X connect 326 0 324 0;
#X connect 327 0 347 0;
#X connect 327 0 356 0;
#X connect 328 0 304 1;
#X connect 329 0 308 1;
#X connect 330 0 312 1;
#X connect 331 0 324 1;
#X connect 332 0 316 1;
#X connect 333 0 320 1;
#X connect 334 0 335 0;
#X connect 335 0 551 0;
#X connect 335 0 565 0;
#X connect 336 0 334 0;
#X connect 337 0 350 0;
#X connect 337 0 359 0;
#X connect 338 0 334 1;
#X connect 339 0 340 0;
#X connect 340 0 552 0;
#X connect 340 0 566 0;
#X connect 341 0 339 0;
#X connect 342 0 351 0;
#X connect 342 0 360 0;
#X connect 343 0 339 1;
#X connect 344 0 304 2;
#X connect 345 0 308 2;
#X connect 346 0 312 2;
#X connect 347 0 324 2;
#X connect 348 0 316 2;
#X connect 349 0 320 2;
#X connect 350 0 334 2;
#X connect 351 0 339 2;
#X connect 353 0 304 3;
#X connect 354 0 308 3;
#X connect 355 0 312 3;
#X connect 356 0 324 3;
#X connect 357 0 316 3;
#X connect 358 0 320 3;
#X connect 359 0 334 3;
#X connect 360 0 339 3;
#X connect 361 0 362 0;
#X connect 361 1 567 0;
#X connect 361 1 571 0;
#X connect 363 0 361 0;
#X connect 364 0 367 0;
#X connect 364 0 368 0;
#X connect 365 0 361 1;
#X connect 367 0 361 2;
#X connect 368 0 361 3;
#X connect 369 0 371 0;
#X connect 370 0 372 0;
#X connect 373 0 375 0;
#X connect 376 0 378 0;
#X connect 379 0 381 0;
#X connect 382 0 384 0;
#X connect 385 0 387 0;
#X connect 388 0 390 0;
#X connect 391 0 393 0;
#X connect 394 0 374 0;
#X connect 395 0 377 0;
#X connect 396 0 380 0;
#X connect 397 0 383 0;
#X connect 398 0 386 0;
#X connect 399 0 389 0;
#X connect 400 0 392 0;
#X connect 401 0 402 0;
#X connect 418 0 404 0;
#X connect 419 0 406 0;
#X connect 420 0 408 0;
#X connect 421 0 410 0;
#X connect 422 0 412 0;
#X connect 423 0 414 0;
#X connect 424 0 416 0;
#X connect 425 0 403 0;
#X connect 426 0 405 0;
#X connect 427 0 407 0;
#X connect 428 0 409 0;
#X connect 429 0 411 0;
#X connect 430 0 413 0;
#X connect 431 0 415 0;
#X connect 432 0 417 0;
#X connect 433 0 434 0;
#X connect 450 0 436 0;
#X connect 451 0 438 0;
#X connect 452 0 440 0;
#X connect 453 0 442 0;
#X connect 454 0 444 0;
#X connect 455 0 446 0;
#X connect 456 0 448 0;
#X connect 457 0 435 0;
#X connect 458 0 437 0;
#X connect 459 0 439 0;
#X connect 460 0 441 0;
#X connect 461 0 443 0;
#X connect 462 0 445 0;
#X connect 463 0 447 0;
#X connect 464 0 449 0;
#X connect 465 0 466 0;
#X connect 482 0 468 0;
#X connect 483 0 470 0;
#X connect 484 0 472 0;
#X connect 485 0 474 0;
#X connect 486 0 476 0;
#X connect 487 0 478 0;
#X connect 488 0 480 0;
#X connect 489 0 467 0;
#X connect 490 0 469 0;
#X connect 491 0 471 0;
#X connect 492 0 473 0;
#X connect 493 0 475 0;
#X connect 494 0 477 0;
#X connect 495 0 479 0;
#X connect 496 0 481 0;
#X connect 497 0 498 0;
#X connect 514 0 500 0;
#X connect 515 0 502 0;
#X connect 516 0 504 0;
#X connect 517 0 506 0;
#X connect 518 0 508 0;
#X connect 519 0 510 0;
#X connect 520 0 512 0;
#X connect 521 0 499 0;
#X connect 522 0 501 0;
#X connect 523 0 503 0;
#X connect 524 0 505 0;
#X connect 525 0 507 0;
#X connect 526 0 509 0;
#X connect 527 0 511 0;
#X connect 528 0 513 0;
#X connect 529 0 530 0;
#X connect 546 0 532 0;
#X connect 547 0 534 0;
#X connect 548 0 536 0;
#X connect 549 0 538 0;
#X connect 550 0 540 0;
#X connect 551 0 542 0;
#X connect 552 0 544 0;
#X connect 553 0 555 0;
#X connect 554 0 556 0;
#X connect 555 0 557 0;
#X connect 556 0 558 0;
#X connect 559 0 531 0;
#X connect 560 0 533 0;
#X connect 561 0 535 0;
#X connect 562 0 537 0;
#X connect 563 0 539 0;
#X connect 564 0 541 0;
#X connect 565 0 543 0;
#X connect 566 0 545 0;
#X connect 567 0 568 0;
#X connect 567 1 569 0;
#X connect 567 2 570 0;
#X connect 572 0 18 5;
#X connect 573 0 22 5;
#X connect 574 0 26 5;
#X connect 575 0 38 5;
#X connect 576 0 30 5;
#X connect 577 0 34 5;
#X connect 578 0 50 5;
#X connect 579 0 55 5;
#X connect 580 0 76 5;
#X connect 581 0 80 5;
#X connect 582 0 84 5;
#X connect 583 0 96 5;
#X connect 584 0 88 5;
#X connect 585 0 92 5;
#X connect 586 0 106 5;
#X connect 587 0 111 5;
#X connect 588 0 125 5;
#X connect 589 0 129 5;
#X connect 590 0 133 5;
#X connect 591 0 145 5;
#X connect 592 0 137 5;
#X connect 593 0 141 5;
#X connect 594 0 155 5;
#X connect 595 0 160 5;
#X connect 596 0 173 5;
#X connect 597 0 177 5;
#X connect 598 0 181 5;
#X connect 599 0 193 5;
#X connect 600 0 185 5;
#X connect 601 0 189 5;
#X connect 602 0 203 5;
#X connect 603 0 208 5;
#X connect 604 0 247 5;
#X connect 605 0 251 5;
#X connect 606 0 255 5;
#X connect 607 0 267 5;
#X connect 608 0 259 5;
#X connect 609 0 263 5;
#X connect 610 0 282 5;
#X connect 611 0 277 5;
#X connect 612 0 304 5;
#X connect 613 0 308 5;
#X connect 614 0 312 5;
#X connect 615 0 324 5;
#X connect 616 0 316 5;
#X connect 617 0 320 5;
#X connect 618 0 334 5;
#X connect 619 0 339 5;
