#N canvas 1803 215 721 598 12;
#X obj 48 75 gemwin;
#X msg 48 31 create;
#X msg 108 30 destroy;
#X obj 19 32 tgl 15 0 empty empty empty 17 7 0 10 -262144 -1 -1 0 1
;
#X obj 108 111 gemhead 55;
#X obj 108 256 translateXYZ;
#X obj 108 313 square 0.2;
#X msg 19 256 draw line;
#X obj 19 217 loadbang;
#X obj 135 215 - 5.33;
#X obj 135 182 * 10.66;
#X obj 135 149 r x;
#X obj 205 215 - 4;
#X obj 205 182 * 8;
#X obj 205 149 r y;
#X obj 279 14 loadbang;
#X msg 279 120 horizontal;
#X obj 386 18 gemhead 50;
#X obj 386 63 pix_video;
#X msg 291 44 device 0;
#X obj 386 101 pix_rgba;
#X obj 386 152 pix_flip;
#X obj 386 203 trigger a a;
#X obj 460 250 pix_separator;
#X obj 443 326 pix_data;
#X obj 478 283 r x;
#X obj 517 284 r y;
#X obj 372 281 metro 100;
#X obj 372 245 tgl 15 0 empty empty empty 17 7 0 10 -262144 -1 -1 1
1;
#X obj 469 380 trigger a a;
#X obj 543 427 spigot;
#X obj 582 390 tgl 15 0 empty empty empty 17 7 0 10 -262144 -1 -1 0
1;
#X text 613 388 store color;
#X floatatom 469 514 5 0 0 0 - - -;
#X obj 256 283 pix_separator;
#X obj 256 328 pix_texture;
#X obj 256 374 rectangle 5.33 4;
#X obj 520 18 hsl 128 15 0 1 0 0 empty empty empty -2 -8 0 10 -262144
-1 -1 7800 1;
#X obj 517 38 s x;
#X text 661 17 X;
#X obj 521 69 hsl 128 15 0 1 0 0 empty empty empty -2 -8 0 10 -262144
-1 -1 6000 1;
#X text 662 68 Y;
#X obj 518 89 s y;
#X obj 469 469 colorDistance;
#X connect 1 0 0 0;
#X connect 2 0 0 0;
#X connect 3 0 0 0;
#X connect 4 0 5 0;
#X connect 5 0 6 0;
#X connect 7 0 6 0;
#X connect 8 0 7 0;
#X connect 9 0 5 1;
#X connect 10 0 9 0;
#X connect 11 0 10 0;
#X connect 12 0 5 2;
#X connect 13 0 12 0;
#X connect 14 0 13 0;
#X connect 15 0 16 0;
#X connect 15 0 19 0;
#X connect 17 0 18 0;
#X connect 18 0 20 0;
#X connect 19 0 18 0;
#X connect 20 0 21 0;
#X connect 21 0 22 0;
#X connect 22 0 34 0;
#X connect 22 1 23 0;
#X connect 23 0 24 1;
#X connect 24 1 29 0;
#X connect 25 0 24 2;
#X connect 26 0 24 3;
#X connect 27 0 24 0;
#X connect 28 0 27 0;
#X connect 29 0 43 0;
#X connect 29 1 30 0;
#X connect 30 0 43 1;
#X connect 31 0 30 1;
#X connect 34 0 35 0;
#X connect 35 0 36 0;
#X connect 37 0 38 0;
#X connect 40 0 42 0;
#X connect 43 0 33 0;
