#N canvas 1803 215 721 598 12;
#X obj 48 75 gemwin;
#X msg 48 31 create;
#X msg 108 30 destroy;
#X obj 19 32 tgl 15 0 empty empty empty 17 7 0 10 -262144 -1 -1 1 1
;
#X obj 279 14 loadbang;
#X msg 279 100 horizontal;
#X obj 386 18 gemhead 50;
#X obj 386 63 pix_video;
#X msg 291 44 device 0;
#X obj 386 101 pix_rgba;
#X obj 386 152 pix_flip;
#X obj 386 203 trigger a a;
#X obj 460 250 pix_separator;
#X obj 256 283 pix_separator;
#X obj 256 328 pix_texture;
#X obj 256 374 rectangle 5.33 4;
#X obj 475 281 hsl 128 15 0 1 0 0 empty empty empty -2 -8 0 10 -262144
-1 -1 3600 1;
#X text 621 278 X;
#X obj 486 304 hsl 128 15 0 1 0 0 empty empty empty -2 -8 0 10 -262144
-1 -1 6500 1;
#X text 631 302 Y;
#X obj 449 372 hotspot;
#X obj 495 333 tgl 15 0 empty empty empty 17 7 0 10 -262144 -1 -1 0
1;
#X text 520 331 Store color;
#X obj 449 411 tgl 15 0 empty empty empty 17 7 0 10 -262144 -1 -1 0
1;
#X obj 449 448 s sz;
#X obj 20 173 metro 50;
#X obj 20 202 s m;
#X obj 104 152 color 1 1 0;
#X obj 104 302 circle;
#X obj 143 187 r sz;
#X obj 143 221 select 0 1;
#X msg 143 259 0.5;
#X msg 195 260 1.5;
#X obj 421 284 r m;
#X msg 58 6 dimen 800 600;
#X obj 104 106 gemhead;
#X obj 20 136 loadbang;
#X connect 1 0 0 0;
#X connect 2 0 0 0;
#X connect 3 0 0 0;
#X connect 4 0 5 0;
#X connect 4 0 8 0;
#X connect 5 0 10 0;
#X connect 6 0 7 0;
#X connect 7 0 9 0;
#X connect 8 0 7 0;
#X connect 9 0 10 0;
#X connect 10 0 11 0;
#X connect 11 0 13 0;
#X connect 11 1 12 0;
#X connect 12 0 20 1;
#X connect 13 0 14 0;
#X connect 14 0 15 0;
#X connect 16 0 20 2;
#X connect 18 0 20 3;
#X connect 20 0 23 0;
#X connect 21 0 20 4;
#X connect 23 0 24 0;
#X connect 25 0 26 0;
#X connect 27 0 28 0;
#X connect 29 0 30 0;
#X connect 30 0 31 0;
#X connect 30 1 32 0;
#X connect 31 0 28 1;
#X connect 32 0 28 1;
#X connect 33 0 20 0;
#X connect 34 0 0 0;
#X connect 35 0 27 0;
#X connect 36 0 25 0;
