#N canvas 1630 341 900 650 12;
#X declare -lib Gem;
#X obj 575 167 counter;
#X obj 576 92 metro 20;
#X obj 738 60 loadbang;
#X msg 706 127 0;
#X msg 757 130 0;
#X msg 810 129 359;
#X floatatom 576 219 5 0 0 0 - - -;
#X obj 576 49 tgl 15 0 empty empty empty 17 7 0 10 -262144 -1 -1 1
1;
#X obj 749 12 declare -lib Gem;
#X obj 156 179 gemwin;
#X msg 166 54 create;
#X msg 184 80 destroy;
#X msg 197 108 lighting 1;
#X obj 126 57 tgl 15 0 empty empty empty 17 7 0 10 -262144 -1 -1 1
1;
#X obj 135 238 gemhead;
#X obj 135 283 world_light;
#X obj 321 210 gemhead;
#X obj 327 273 rotateXYZ;
#X obj 333 358 translateXYZ;
#X msg 389 309 2;
#X obj 333 401 trigger a a;
#X obj 333 438 separator;
#X obj 472 437 separator;
#X obj 333 480 color 1 1 0;
#X obj 472 471 color 1 0 1;
#X obj 333 524 sphere 0.8 36;
#X obj 530 500 rotateXYZ;
#X obj 530 564 translateXYZ;
#X obj 530 599 sphere 0.3 36;
#X floatatom 633 522 5 0 0 0 - - -;
#X obj 579 274 * -2;
#X msg 644 494 1.18;
#X text 430 48 Starts the rotation;
#X text 83 20 Control the Gem Window;
#X text 134 493 creates the yellow sphere;
#X text 685 564 creates the purple sphere;
#X connect 0 0 6 0;
#X connect 0 0 17 2;
#X connect 1 0 0 0;
#X connect 2 0 3 0;
#X connect 2 0 4 0;
#X connect 2 0 5 0;
#X connect 3 0 0 2;
#X connect 4 0 0 3;
#X connect 5 0 0 4;
#X connect 6 0 30 0;
#X connect 7 0 1 0;
#X connect 10 0 9 0;
#X connect 11 0 9 0;
#X connect 12 0 9 0;
#X connect 13 0 9 0;
#X connect 14 0 15 0;
#X connect 16 0 17 0;
#X connect 17 0 18 0;
#X connect 18 0 20 0;
#X connect 19 0 18 1;
#X connect 20 0 21 0;
#X connect 20 1 22 0;
#X connect 21 0 23 0;
#X connect 22 0 24 0;
#X connect 23 0 25 0;
#X connect 24 0 26 0;
#X connect 26 0 27 0;
#X connect 27 0 28 0;
#X connect 29 0 27 1;
#X connect 30 0 26 2;
#X connect 31 0 29 0;
