#N canvas 1586 649 916 650 12;
#X declare -lib Gem;
#X obj 575 167 counter;
#X obj 576 92 metro 20;
#X obj 738 60 loadbang;
#X msg 706 127 0;
#X msg 757 130 0;
#X msg 810 129 359;
#X floatatom 576 219 5 0 0 0 - - -;
#X obj 576 49 tgl 15 0 empty empty empty 17 7 0 10 -262144 -1 -1 1
1;
#X obj 749 12 declare -lib Gem;
#X obj 80 165 gemwin;
#X msg 90 40 create;
#X msg 108 66 destroy;
#X msg 121 94 lighting 1;
#X obj 50 43 tgl 15 0 empty empty empty 17 7 0 10 -262144 -1 -1 1 1
;
#X obj 59 224 gemhead;
#X obj 59 269 world_light;
#X obj 277 88 gemhead;
#X obj 283 151 rotateXYZ;
#X obj 289 236 translateXYZ;
#X msg 345 187 2;
#X obj 289 279 trigger a a;
#X obj 289 316 separator;
#X obj 415 363 separator;
#X obj 174 600 sphere 0.8 36;
#X obj 530 500 rotateXYZ;
#X obj 530 564 translateXYZ;
#X obj 530 599 sphere 0.3 36;
#X floatatom 633 522 5 0 0 0 - - -;
#X obj 579 274 * -2;
#X msg 644 494 1.18;
#X text 430 48 Starts the rotation;
#X text 23 8 Control the Gem Window;
#X text 685 564 creates the purple sphere;
#X obj 415 397 color 1 0 1;
#X obj 17 442 bng 15 250 50 0 empty empty empty 17 7 0 10 -262144 -1
-1;
#X obj 17 461 metro 500;
#X obj 173 553 colorRGB 1 1 0;
#X text 9 571 creates the sphere;
#X obj 96 441 bng 15 250 50 0 empty empty empty 17 7 0 10 -262144 -1
-1;
#X obj 174 443 bng 15 250 50 0 empty empty empty 17 7 0 10 -262144
-1 -1;
#X obj 96 461 metro 400;
#X obj 173 462 metro 300;
#X obj 175 489 decide;
#X obj 95 489 decide;
#X obj 17 488 decide;
#X obj 655 342 metro 300;
#X obj 655 314 bng 15 250 50 0 empty empty empty 17 7 0 10 -262144
-1 -1;
#X text 13 343 NEW OBJECT - Decide outputs 1 or 0 Trigger all or some
bangs to change color of sphere periodically, f 27;
#X obj 655 378 drunk 60 3;
#X text 733 327 NEW OBJECT - drunk outputs random number in a range
differencing frtom the last by a step indicator Makes the sphere rotate
on the x axis by different values slowly, f 25;
#X connect 0 0 6 0;
#X connect 0 0 17 2;
#X connect 1 0 0 0;
#X connect 2 0 3 0;
#X connect 2 0 4 0;
#X connect 2 0 5 0;
#X connect 3 0 0 2;
#X connect 4 0 0 3;
#X connect 5 0 0 4;
#X connect 6 0 28 0;
#X connect 7 0 1 0;
#X connect 10 0 9 0;
#X connect 11 0 9 0;
#X connect 12 0 9 0;
#X connect 13 0 9 0;
#X connect 14 0 15 0;
#X connect 16 0 17 0;
#X connect 17 0 18 0;
#X connect 18 0 20 0;
#X connect 19 0 18 1;
#X connect 20 0 21 0;
#X connect 20 1 22 0;
#X connect 21 0 36 0;
#X connect 22 0 33 0;
#X connect 24 0 25 0;
#X connect 25 0 26 0;
#X connect 27 0 25 1;
#X connect 28 0 24 2;
#X connect 29 0 27 0;
#X connect 33 0 24 0;
#X connect 34 0 35 0;
#X connect 35 0 44 0;
#X connect 36 0 23 0;
#X connect 38 0 40 0;
#X connect 39 0 41 0;
#X connect 40 0 43 0;
#X connect 41 0 42 0;
#X connect 42 0 36 3;
#X connect 43 0 36 2;
#X connect 44 0 36 1;
#X connect 45 0 48 0;
#X connect 46 0 45 0;
#X connect 48 0 24 1;
