#N canvas 401 522 1081 657 12;
#X declare -lib Gem;
#X obj 51 84 gemwin;
#X obj 641 15 declare -lib Gem;
#X msg 51 46 create;
#X msg 122 47 destroy;
#X obj 19 47 tgl 15 0 empty empty empty 17 7 0 10 -262144 -1 -1 0 1
;
#X msg 70 15 dimen 800 600;
#X obj 53 146 gemhead 55;
#X obj 53 195 depth;
#X obj 19 146 tgl 15 0 empty empty empty 17 7 0 10 -262144 -1 -1 0
1;
#X obj 53 244 color 1 1 0;
#X obj 93 282 r rot;
#X obj 93 322 trigger b b f;
#X obj 93 363 float;
#X obj 163 366 +;
#X obj 53 402 rotateXYZ;
#X msg 80 452 draw line;
#X obj 53 490 cube 1;
#X text 147 392 rotation;
#X obj 326 16 gemhead 50;
#X obj 326 89 pix_video;
#X obj 326 133 pix_rgba;
#X obj 326 175 pix_flip;
#X obj 326 215 trigger a a;
#X msg 232 91 horizontal;
#X obj 253 257 pix_separator;
#X obj 253 314 pix_texture;
#X obj 253 433 rectangle 5.33 4;
#X obj 400 259 pix_separator;
#X obj 400 315 pix_movement;
#X obj 484 287 hsl 128 15 0 127 0 0 empty empty empty -2 -8 0 10 -262144
-1 -1 0 1;
#X obj 400 357 alpha;
#X obj 400 434 pix_blob;
#X floatatom 417 470 5 0 0 0 - - -;
#X floatatom 473 471 5 0 0 0 - - -;
#X floatatom 526 473 5 0 0 0 - - -;
#X obj 417 506 s x;
#X obj 426 393 hradio 15 1 0 8 empty empty empty 0 -8 0 10 -262144
-1 -1 1;
#X obj 591 59 r x;
#X obj 591 90 trigger f f b;
#X obj 679 135 float;
#X obj 635 170 -;
#X obj 635 206 smooth;
#X obj 635 243 * 360;
#X obj 635 286 s rot;
#X msg 373 51 device 0;
#X text 191 23 gemwin controls, f 9;
#X text 443 10 creates the video gemhead that tracks movement, f 19
;
#X text 118 188 creates the cube in the window, f 16;
#X text 467 148 controls the y rotation;
#X connect 2 0 0 0;
#X connect 3 0 0 0;
#X connect 4 0 0 0;
#X connect 5 0 0 0;
#X connect 6 0 7 0;
#X connect 7 0 9 0;
#X connect 8 0 7 0;
#X connect 9 0 14 0;
#X connect 10 0 11 0;
#X connect 11 0 12 0;
#X connect 11 1 13 0;
#X connect 11 2 13 1;
#X connect 12 0 13 0;
#X connect 12 0 14 2;
#X connect 13 0 12 1;
#X connect 14 0 16 0;
#X connect 15 0 16 0;
#X connect 18 0 19 0;
#X connect 19 0 20 0;
#X connect 20 0 21 0;
#X connect 21 0 22 0;
#X connect 22 0 24 0;
#X connect 22 1 27 0;
#X connect 23 0 21 0;
#X connect 24 0 25 0;
#X connect 25 0 26 0;
#X connect 27 0 28 0;
#X connect 28 0 30 0;
#X connect 29 0 28 1;
#X connect 30 0 31 0;
#X connect 31 1 32 0;
#X connect 31 2 33 0;
#X connect 31 3 34 0;
#X connect 32 0 35 0;
#X connect 36 0 31 1;
#X connect 37 0 38 0;
#X connect 38 1 40 0;
#X connect 38 2 39 0;
#X connect 39 0 40 1;
#X connect 40 0 41 0;
#X connect 41 0 42 0;
#X connect 42 0 43 0;
#X connect 44 0 19 0;
