#N canvas 1261 406 1131 850 12;
#X declare -lib Gem;
#X obj 51 84 gemwin;
#X obj 991 19 declare -lib Gem;
#X msg 51 46 create;
#X msg 122 47 destroy;
#X obj 19 47 tgl 15 0 empty empty empty 17 7 0 10 -262144 -1 -1 1 1
;
#X msg 70 15 dimen 800 600;
#X obj 53 146 gemhead 55;
#X obj 53 195 depth;
#X obj 19 146 tgl 15 0 empty empty empty 17 7 0 10 -262144 -1 -1 1
1;
#X obj 93 282 r rot;
#X obj 93 322 trigger b b f;
#X obj 93 363 float;
#X obj 163 366 +;
#X obj 53 437 rotateXYZ;
#X msg 80 524 draw line;
#X obj 53 562 cube 1;
#X obj 431 47 gemhead 50;
#X obj 431 120 pix_video;
#X obj 431 164 pix_rgba;
#X obj 431 206 pix_flip;
#X obj 431 246 trigger a a;
#X msg 337 122 horizontal;
#X obj 358 288 pix_separator;
#X obj 358 345 pix_texture;
#X obj 358 464 rectangle 5.33 4;
#X obj 505 290 pix_separator;
#X obj 505 346 pix_movement;
#X obj 589 318 hsl 128 15 0 127 0 0 empty empty empty -2 -8 0 10 -262144
-1 -1 0 1;
#X obj 505 388 alpha;
#X obj 505 465 pix_blob;
#X floatatom 522 501 5 0 0 0 - - -;
#X floatatom 578 502 5 0 0 0 - - -;
#X floatatom 631 504 5 0 0 0 - - -;
#X obj 522 537 s x;
#X obj 531 424 hradio 15 1 0 8 empty empty empty 0 -8 0 10 -262144
-1 -1 1;
#X obj 941 63 r x;
#X obj 941 94 trigger f f b;
#X obj 1029 139 float;
#X obj 985 174 -;
#X obj 985 210 smooth;
#X obj 985 247 * 360;
#X obj 985 290 s rot;
#X msg 478 82 device 0;
#X obj 575 532 moses 0.5;
#X obj 53 480 translateXYZ;
#X obj 506 793 s x1;
#X obj 741 713 s x2;
#X obj 60 389 r x1;
#X obj 540 52 loadbang;
#X floatatom 575 601 5 0 0 0 - - -;
#X obj 575 566 * 100;
#X obj 118 195 r x2;
#X obj 490 711 random;
#X obj 440 527 bng 15 250 50 0 empty empty empty 17 7 0 10 -262144
-1 -1;
#X obj 440 572 metro 600;
#X obj 491 740 + 20;
#X obj 528 676 expr if ($f1 < 49 \, $f1 \, 0);
#X obj 741 638 metro 300;
#X obj 741 676 decide;
#X floatatom 634 563 5 0 0 0 - - -;
#X obj 634 596 expr if ($f1 > 0.502 \, 1 \, 0);
#X obj 53 244 colorRGB 1 1 0;
#X obj 800 676 decide;
#X obj 859 677 decide;
#X obj 859 712 s x4;
#X obj 800 711 s x3;
#X obj 154 194 r x3;
#X obj 194 194 r x4;
#X text 916 632 NEW OBJECT - Decide Outputs 1 or 0 randomly. When moses
splits to this side \, (greater than 0.5 \, The decides will trigger
on a metro and be sent to variables x2 \, x3 \, and x4. They are then
used to randomly select colors for the cube, f 29;
#X text 755 393 NEW OBJECT - moses Splits a number stream based on
the argument. Takes the pix_blbo data and changes either the color
or the rotation based on which outlet it splits to. When split left
\, it will change rotation \, and splitting right will change color
, f 22;
#X text 641 58 Creates the video gemhead that tracks movement, f 25
;
#X text 193 12 gemwin controls, f 16;
#X text 143 116 creates the cube in the window, f 16;
#X text 233 188 Uses the sent decide data to randomly change the cube's
color, f 14;
#X text 99 394 uses the sent data from moses tochange the x rotation
, f 30;
#X text 810 169 controls the y rotation;
#X text 50 667 When it tracks movement to the left of the gem window
\, the cube will rotate randomly on the x axis based on pix-blob. When
it tracks movement to the right of the window \, the cube will begin
changing colors rapidly until the movement is tracked to the left.
, f 52;
#X connect 2 0 0 0;
#X connect 3 0 0 0;
#X connect 4 0 0 0;
#X connect 5 0 0 0;
#X connect 6 0 7 0;
#X connect 7 0 61 0;
#X connect 8 0 7 0;
#X connect 9 0 10 0;
#X connect 10 0 11 0;
#X connect 10 1 12 0;
#X connect 10 2 12 1;
#X connect 11 0 12 0;
#X connect 11 0 13 2;
#X connect 12 0 11 1;
#X connect 13 0 44 0;
#X connect 14 0 15 0;
#X connect 16 0 17 0;
#X connect 17 0 18 0;
#X connect 18 0 19 0;
#X connect 19 0 20 0;
#X connect 20 0 22 0;
#X connect 20 1 25 0;
#X connect 21 0 19 0;
#X connect 22 0 23 0;
#X connect 23 0 24 0;
#X connect 25 0 26 0;
#X connect 26 0 28 0;
#X connect 27 0 26 1;
#X connect 28 0 29 0;
#X connect 29 1 30 0;
#X connect 29 2 31 0;
#X connect 29 3 32 0;
#X connect 30 0 33 0;
#X connect 30 0 43 0;
#X connect 34 0 29 1;
#X connect 35 0 36 0;
#X connect 36 1 38 0;
#X connect 36 2 37 0;
#X connect 37 0 38 1;
#X connect 38 0 39 0;
#X connect 39 0 40 0;
#X connect 40 0 41 0;
#X connect 42 0 17 0;
#X connect 43 0 50 0;
#X connect 43 1 59 0;
#X connect 44 0 15 0;
#X connect 47 0 13 1;
#X connect 48 0 42 0;
#X connect 49 0 56 0;
#X connect 50 0 49 0;
#X connect 51 0 61 1;
#X connect 52 0 55 0;
#X connect 53 0 54 0;
#X connect 54 0 52 0;
#X connect 55 0 45 0;
#X connect 56 0 52 1;
#X connect 57 0 58 0;
#X connect 57 0 62 0;
#X connect 57 0 63 0;
#X connect 58 0 46 0;
#X connect 59 0 60 0;
#X connect 60 0 57 0;
#X connect 61 0 13 0;
#X connect 62 0 65 0;
#X connect 63 0 64 0;
#X connect 66 0 61 2;
#X connect 67 0 61 3;
