#N canvas 575 389 746 554 12;
#X declare -lib Gem;
#X declare -lib mrpeach;
#X obj 96 109 udpreceive 3333;
#X obj 96 150 unpackOSC;
#X obj 96 195 routeOSC /tuio;
#X obj 96 236 routeOSC /2Dcur;
#X obj 96 277 route set;
#X obj 96 320 unpack f f f f f f;
#X floatatom 96 364 5 0 0 0 - - -;
#X floatatom 145 364 5 0 0 0 - - -;
#X floatatom 189 365 5 0 0 0 - - -;
#X obj 145 396 * 8;
#X obj 145 428 - 4;
#X obj 145 460 s x;
#X obj 189 397 * -8;
#X obj 189 429 + 4;
#X obj 189 461 s y;
#X obj 96 485 s tx;
#X obj 271 113 tgl 15 0 empty empty empty 17 7 0 10 -262144 -1 -1 0
1;
#X msg 314 113 create;
#X msg 380 111 destroy;
#X obj 314 156 gemwin;
#X obj 511 116 gemhead;
#X obj 511 199 translateXYZ;
#X obj 538 144 r x;
#X obj 565 167 r y;
#X obj 511 255 color 1 1 0;
#X obj 511 356 text2d;
#X msg 550 321 32;
#X obj 550 289 loadbang;
#X obj 410 260 r tx;
#X msg 410 305 text \$1;
#X obj 91 66 declare -lib Gem;
#X obj 91 39 declare -lib mrpeach;
#X text 91 9 declare libraries;
#X text 313 63 gemwin controls;
#X text 627 171 creates the "sphere". Changes the position based on
the finger position received, f 13;
#X text 5 105 OSC setup to receive signals from phone, f 13;
#X connect 0 0 1 0;
#X connect 1 0 2 0;
#X connect 2 0 3 0;
#X connect 3 0 4 0;
#X connect 4 0 5 0;
#X connect 5 0 6 0;
#X connect 5 1 7 0;
#X connect 5 2 8 0;
#X connect 6 0 15 0;
#X connect 7 0 9 0;
#X connect 8 0 12 0;
#X connect 9 0 10 0;
#X connect 10 0 11 0;
#X connect 12 0 13 0;
#X connect 13 0 14 0;
#X connect 16 0 19 0;
#X connect 17 0 19 0;
#X connect 18 0 19 0;
#X connect 20 0 21 0;
#X connect 21 0 24 0;
#X connect 22 0 21 1;
#X connect 23 0 21 2;
#X connect 24 0 25 0;
#X connect 26 0 25 1;
#X connect 27 0 26 0;
#X connect 28 0 29 0;
#X connect 29 0 25 0;
