#N canvas 1664 372 851 646 12;
#X declare -lib mrpeach;
#X declare -lib Gem;
#X obj 92 113 udpreceive 3333;
#X obj 92 154 unpackOSC;
#X obj 92 199 routeOSC /tuio;
#X obj 92 240 routeOSC /2Dcur;
#X obj 92 281 route set;
#X obj 92 324 unpack f f f f f f;
#X floatatom 92 368 5 0 0 0 - - -;
#X floatatom 141 368 5 0 0 0 - - -;
#X floatatom 185 369 5 0 0 0 - - -;
#X obj 141 400 * 8;
#X obj 141 432 - 4;
#X obj 141 464 s x;
#X obj 185 401 * -8;
#X obj 185 433 + 4;
#X obj 185 465 s y;
#X obj 92 489 s tx;
#X obj 320 63 tgl 15 0 empty empty empty 17 7 0 10 -262144 -1 -1 0
1;
#X msg 363 63 create;
#X msg 429 61 destroy;
#X obj 363 106 gemwin;
#X obj 596 85 gemhead;
#X obj 596 168 translateXYZ;
#X obj 623 113 r x;
#X obj 650 136 r y;
#X obj 407 282 r tx;
#X obj 596 353 sphere 1;
#X obj 87 28 declare -lib mrpeach;
#X obj 87 52 declare -lib Gem;
#X obj 376 366 % 8;
#X obj 407 325 + 7;
#X obj 361 421 sel 0 1 2 3 4 5 6 7;
#X obj 596 224 color 0 1 1;
#X msg 322 450 0 0 0;
#X msg 322 478 0 0 1;
#X msg 322 504 0 1 0;
#X msg 382 455 1 0 0;
#X msg 381 478 1 0 1;
#X msg 381 503 1 1 0;
#X msg 444 455 0 1 1;
#X msg 444 481 1 1 1;
#X obj 371 551 s c;
#X obj 709 184 r c;
#X obj 441 390 s seg;
#X obj 677 334 r seg;
#X obj 420 359 % 12;
#X msg 622 296 draw line;
#X obj 622 265 loadbang;
#X text 86 1 declare libraries;
#X text 347 17 gemwin controls;
#X text 700 27 creates the "sphere". Changes the position based on
the finger position received, f 13;
#X text 237 198 OSC setup to receive signals from phone, f 21;
#X text 529 424 recieves the number of taps on the screen \, and converts
it into a color \, or the number of segments used for the shape creation.
Every tep on the screen cycles through the colors and shapes New Objects:
receive \, send \, + \, % \, sel, f 38;
#X connect 0 0 1 0;
#X connect 1 0 2 0;
#X connect 2 0 3 0;
#X connect 3 0 4 0;
#X connect 4 0 5 0;
#X connect 5 0 6 0;
#X connect 5 1 7 0;
#X connect 5 2 8 0;
#X connect 6 0 15 0;
#X connect 7 0 9 0;
#X connect 8 0 12 0;
#X connect 9 0 10 0;
#X connect 10 0 11 0;
#X connect 12 0 13 0;
#X connect 13 0 14 0;
#X connect 16 0 19 0;
#X connect 17 0 19 0;
#X connect 18 0 19 0;
#X connect 20 0 21 0;
#X connect 21 0 31 0;
#X connect 22 0 21 1;
#X connect 23 0 21 2;
#X connect 24 0 29 0;
#X connect 28 0 30 0;
#X connect 29 0 28 0;
#X connect 29 0 44 0;
#X connect 30 0 32 0;
#X connect 30 1 33 0;
#X connect 30 2 34 0;
#X connect 30 3 35 0;
#X connect 30 4 36 0;
#X connect 30 5 37 0;
#X connect 30 6 38 0;
#X connect 30 7 39 0;
#X connect 31 0 25 0;
#X connect 32 0 40 0;
#X connect 33 0 40 0;
#X connect 34 0 40 0;
#X connect 35 0 40 0;
#X connect 36 0 40 0;
#X connect 37 0 40 0;
#X connect 38 0 40 0;
#X connect 39 0 40 0;
#X connect 41 0 31 1;
#X connect 43 0 25 2;
#X connect 44 0 42 0;
#X connect 45 0 25 0;
#X connect 46 0 45 0;
